{
  "accessors": [
    {
      "bufferView": 2,
      "componentType": 5126,
      "count": 3541,
      "max": [
        0.13457100093364716,
        0.020010000094771385,
        0.09631499648094177
      ],
      "min": [
        -0.10178299993276596,
        -0.021703999489545822,
        -0.17541000247001648
      ],
      "type": "VEC3"
    },
    {
      "bufferView": 2,
      "byteOffset": 42492,
      "componentType": 5126,
      "count": 3541,
      "max": [
        1.0,
        1.0,
        1.0
      ],
      "min": [
        -1.0,
        -1.0,
        -1.0
      ],
      "type": "VEC3"
    },
    {
      "bufferView": 1,
      "componentType": 5126,
      "count": 3541,
      "max": [
        0.984375,
        0.9975590109825134
      ],
      "min": [
        0.019805999472737312,
        0.0071299998089671135
      ],
      "type": "VEC2"
    },
    {
      "bufferView": 0,
      "componentType": 5125,
      "count": 11298,
      "type": "SCALAR"
    }
  ],
  "asset": {
    "extras": {
      "author": "yochan.176 (https://sketchfab.com/yochan.176)",
      "license": "CC-BY-4.0 (http://creativecommons.org/licenses/by/4.0/)",
      "source": "https://sketchfab.com/3d-models/blue-archive-weapon-ushio-noa-5e46682e30f1433e8e8db0d9882e4882",
      "title": "[Blue Archive Weapon] - Ushio Noa"
    },
    "generator": "Sketchfab-14.41.0",
    "version": "2.0"
  },
  "bufferViews": [
    {
      "buffer": 0,
      "byteLength": 45192,
      "name": "floatBufferViews",
      "target": 34963
    },
    {
      "buffer": 0,
      "byteLength": 28328,
      "byteOffset": 45192,
      "byteStride": 8,
      "name": "floatBufferViews",
      "target": 34962
    },
    {
      "buffer": 0,
      "byteLength": 84984,
      "byteOffset": 73520,
      "byteStride": 12,
      "name": "floatBufferViews",
      "target": 34962
    }
  ],
  "buffers": [
    {
      "byteLength": 158504,
      "uri": "scene.bin"
    }
  ],
  "images": [
    {
      "uri": "textures/Default_OBJ_baseColor.png"
    }
  ],
  "materials": [
    {
      "doubleSided": true,
      "name": "Default_OBJ",
      "pbrMetallicRoughness": {
        "baseColorTexture": {
          "index": 0
        },
        "metallicFactor": 0.0,
        "roughnessFactor": 0.8011823178082373
      }
    }
  ],
  "meshes": [
    {
      "name": "Object_0",
      "primitives": [
        {
          "attributes": {
            "NORMAL": 1,
            "POSITION": 0,
            "TEXCOORD_0": 2
          },
          "indices": 3,
          "material": 0,
          "mode": 4
        }
      ]
    }
  ],
  "nodes": [
    {
      "children": [
        1
      ],
      "matrix": [
        1.0,
        0.0,
        0.0,
        0.0,
        0.0,
        2.220446049250313e-16,
        -1.0,
        0.0,
        0.0,
        1.0,
        2.220446049250313e-16,
        0.0,
        0.0,
        0.0,
        0.0,
        1.0
      ],
      "name": "Sketchfab_model"
    },
    {
      "children": [
        2
      ],
      "name": "CH0095_Weapon.obj.cleaner.materialmerger.gles"
    },
    {
      "mesh": 0,
      "name": "Object_2"
    }
  ],
  "samplers": [
    {
      "magFilter": 9729,
      "minFilter": 9987,
      "wrapS": 10497,
      "wrapT": 10497
    }
  ],
  "scene": 0,
  "scenes": [
    {
      "name": "Sketchfab_Scene",
      "nodes": [
        0
      ]
    }
  ],
  "textures": [
    {
      "sampler": 0,
      "source": 0
    }
  ]
}
